<?xml version="1.0" encoding="UTF-8" standalone="no"?>
<svg
xmlns="http://www.w3.org/2000/svg"
version="1.0"
width="1600" height="1600"
id="11-cube_t0_B5.svg">
<!-- Graph: v=2048 e=11264 -->
<!-- Projection: Point overlap:32 64 ,  visible v=62 e=253 -->
<g style="stroke:#000000;stroke-width:6.0;stroke-opacity:0.50;">
<line x1="1185.943" y1="846.058" x2="1081.556" y2="1216.852"/>
<line x1="1185.943" y1="846.058" x2="912.654" y2="1075.221"/>
<line x1="1185.943" y1="846.058" x2="848.139" y2="846.058"/>
<line x1="1185.943" y1="846.058" x2="912.654" y2="616.894"/>
<line x1="1185.943" y1="846.058" x2="1081.556" y2="475.263"/>
<line x1="1185.943" y1="846.058" x2="1185.943" y2="846.058"/>
<line x1="1185.943" y1="846.058" x2="1507.214" y2="753.942"/>
<line x1="1081.556" y1="1216.852" x2="808.267" y2="1446.015"/>
<line x1="1081.556" y1="1216.852" x2="743.752" y2="1216.852"/>
<line x1="1081.556" y1="1216.852" x2="808.267" y2="987.689"/>
<line x1="1081.556" y1="1216.852" x2="977.169" y2="846.058"/>
<line x1="1081.556" y1="1216.852" x2="1081.556" y2="1216.852"/>
<line x1="1081.556" y1="1216.852" x2="1402.827" y2="1124.737"/>
<line x1="912.654" y1="1075.221" x2="808.267" y2="1446.015"/>
<line x1="912.654" y1="1075.221" x2="574.850" y2="1075.221"/>
<line x1="912.654" y1="1075.221" x2="639.365" y2="846.058"/>
<line x1="912.654" y1="1075.221" x2="808.267" y2="704.427"/>
<line x1="912.654" y1="1075.221" x2="912.654" y2="1075.221"/>
<line x1="912.654" y1="1075.221" x2="1233.925" y2="983.106"/>
<line x1="808.267" y1="1446.015" x2="470.463" y2="1446.015"/>
<line x1="808.267" y1="1446.015" x2="534.977" y2="1216.852"/>
<line x1="808.267" y1="1446.015" x2="703.879" y2="1075.221"/>
<line x1="808.267" y1="1446.015" x2="808.267" y2="1446.015"/>
<line x1="808.267" y1="1446.015" x2="1129.537" y2="1353.900"/>
<line x1="848.139" y1="846.058" x2="743.752" y2="1216.852"/>
<line x1="848.139" y1="846.058" x2="574.850" y2="1075.221"/>
<line x1="848.139" y1="846.058" x2="574.850" y2="616.894"/>
<line x1="848.139" y1="846.058" x2="743.752" y2="475.263"/>
<line x1="848.139" y1="846.058" x2="848.139" y2="846.058"/>
<line x1="848.139" y1="846.058" x2="1169.410" y2="753.942"/>
<line x1="743.752" y1="1216.852" x2="470.463" y2="1446.015"/>
<line x1="743.752" y1="1216.852" x2="470.463" y2="987.689"/>
<line x1="743.752" y1="1216.852" x2="639.365" y2="846.058"/>
<line x1="743.752" y1="1216.852" x2="743.752" y2="1216.852"/>
<line x1="743.752" y1="1216.852" x2="1065.023" y2="1124.737"/>
<line x1="574.850" y1="1075.221" x2="470.463" y2="1446.015"/>
<line x1="574.850" y1="1075.221" x2="301.561" y2="846.058"/>
<line x1="574.850" y1="1075.221" x2="470.463" y2="704.427"/>
<line x1="574.850" y1="1075.221" x2="574.850" y2="1075.221"/>
<line x1="574.850" y1="1075.221" x2="896.121" y2="983.106"/>
<line x1="470.463" y1="1446.015" x2="197.173" y2="1216.852"/>
<line x1="470.463" y1="1446.015" x2="366.075" y2="1075.221"/>
<line x1="470.463" y1="1446.015" x2="470.463" y2="1446.015"/>
<line x1="470.463" y1="1446.015" x2="791.733" y2="1353.900"/>
<line x1="912.654" y1="616.894" x2="808.267" y2="987.689"/>
<line x1="912.654" y1="616.894" x2="639.365" y2="846.058"/>
<line x1="912.654" y1="616.894" x2="574.850" y2="616.894"/>
<line x1="912.654" y1="616.894" x2="808.267" y2="246.100"/>
<line x1="912.654" y1="616.894" x2="912.654" y2="616.894"/>
<line x1="912.654" y1="616.894" x2="1233.925" y2="524.779"/>
<line x1="808.267" y1="987.689" x2="534.977" y2="1216.852"/>
<line x1="808.267" y1="987.689" x2="470.463" y2="987.689"/>
<line x1="808.267" y1="987.689" x2="703.879" y2="616.894"/>
<line x1="808.267" y1="987.689" x2="808.267" y2="987.689"/>
<line x1="808.267" y1="987.689" x2="1129.537" y2="895.573"/>
<line x1="639.365" y1="846.058" x2="534.977" y2="1216.852"/>
<line x1="639.365" y1="846.058" x2="301.561" y2="846.058"/>
<line x1="639.365" y1="846.058" x2="534.977" y2="475.263"/>
<line x1="639.365" y1="846.058" x2="639.365" y2="846.058"/>
<line x1="639.365" y1="846.058" x2="960.635" y2="753.942"/>
<line x1="534.977" y1="1216.852" x2="197.173" y2="1216.852"/>
<line x1="534.977" y1="1216.852" x2="430.590" y2="846.058"/>
<line x1="534.977" y1="1216.852" x2="534.977" y2="1216.852"/>
<line x1="534.977" y1="1216.852" x2="856.248" y2="1124.737"/>
<line x1="574.850" y1="616.894" x2="470.463" y2="987.689"/>
<line x1="574.850" y1="616.894" x2="301.561" y2="846.058"/>
<line x1="574.850" y1="616.894" x2="470.463" y2="246.100"/>
<line x1="574.850" y1="616.894" x2="574.850" y2="616.894"/>
<line x1="574.850" y1="616.894" x2="896.121" y2="524.779"/>
<line x1="470.463" y1="987.689" x2="197.173" y2="1216.852"/>
<line x1="470.463" y1="987.689" x2="366.075" y2="616.894"/>
<line x1="470.463" y1="987.689" x2="470.463" y2="987.689"/>
<line x1="470.463" y1="987.689" x2="791.733" y2="895.573"/>
<line x1="301.561" y1="846.058" x2="197.173" y2="1216.852"/>
<line x1="301.561" y1="846.058" x2="197.173" y2="475.263"/>
<line x1="301.561" y1="846.058" x2="301.561" y2="846.058"/>
<line x1="301.561" y1="846.058" x2="622.831" y2="753.942"/>
<line x1="197.173" y1="1216.852" x2="92.786" y2="846.058"/>
<line x1="197.173" y1="1216.852" x2="197.173" y2="1216.852"/>
<line x1="197.173" y1="1216.852" x2="518.444" y2="1124.737"/>
<line x1="1081.556" y1="475.263" x2="977.169" y2="846.058"/>
<line x1="1081.556" y1="475.263" x2="808.267" y2="704.427"/>
<line x1="1081.556" y1="475.263" x2="743.752" y2="475.263"/>
<line x1="1081.556" y1="475.263" x2="808.267" y2="246.100"/>
<line x1="1081.556" y1="475.263" x2="1081.556" y2="475.263"/>
<line x1="1081.556" y1="475.263" x2="1402.827" y2="383.148"/>
<line x1="977.169" y1="846.058" x2="703.879" y2="1075.221"/>
<line x1="977.169" y1="846.058" x2="639.365" y2="846.058"/>
<line x1="977.169" y1="846.058" x2="703.879" y2="616.894"/>
<line x1="977.169" y1="846.058" x2="977.169" y2="846.058"/>
<line x1="977.169" y1="846.058" x2="1298.439" y2="753.942"/>
<line x1="808.267" y1="704.427" x2="703.879" y2="1075.221"/>
<line x1="808.267" y1="704.427" x2="470.463" y2="704.427"/>
<line x1="808.267" y1="704.427" x2="534.977" y2="475.263"/>
<line x1="808.267" y1="704.427" x2="808.267" y2="704.427"/>
<line x1="808.267" y1="704.427" x2="1129.537" y2="612.311"/>
<line x1="703.879" y1="1075.221" x2="366.075" y2="1075.221"/>
<line x1="703.879" y1="1075.221" x2="430.590" y2="846.058"/>
<line x1="703.879" y1="1075.221" x2="703.879" y2="1075.221"/>
<line x1="703.879" y1="1075.221" x2="1025.150" y2="983.106"/>
<line x1="743.752" y1="475.263" x2="639.365" y2="846.058"/>
<line x1="743.752" y1="475.263" x2="470.463" y2="704.427"/>
<line x1="743.752" y1="475.263" x2="470.463" y2="246.100"/>
<line x1="743.752" y1="475.263" x2="743.752" y2="475.263"/>
<line x1="743.752" y1="475.263" x2="1065.023" y2="383.148"/>
<line x1="639.365" y1="846.058" x2="366.075" y2="1075.221"/>
<line x1="639.365" y1="846.058" x2="366.075" y2="616.894"/>
<line x1="470.463" y1="704.427" x2="366.075" y2="1075.221"/>
<line x1="470.463" y1="704.427" x2="197.173" y2="475.263"/>
<line x1="470.463" y1="704.427" x2="470.463" y2="704.427"/>
<line x1="470.463" y1="704.427" x2="791.733" y2="612.311"/>
<line x1="366.075" y1="1075.221" x2="92.786" y2="846.058"/>
<line x1="366.075" y1="1075.221" x2="366.075" y2="1075.221"/>
<line x1="366.075" y1="1075.221" x2="687.346" y2="983.106"/>
<line x1="808.267" y1="246.100" x2="703.879" y2="616.894"/>
<line x1="808.267" y1="246.100" x2="534.977" y2="475.263"/>
<line x1="808.267" y1="246.100" x2="470.463" y2="246.100"/>
<line x1="808.267" y1="246.100" x2="808.267" y2="246.100"/>
<line x1="808.267" y1="246.100" x2="1129.537" y2="153.985"/>
<line x1="703.879" y1="616.894" x2="430.590" y2="846.058"/>
<line x1="703.879" y1="616.894" x2="366.075" y2="616.894"/>
<line x1="703.879" y1="616.894" x2="703.879" y2="616.894"/>
<line x1="703.879" y1="616.894" x2="1025.150" y2="524.779"/>
<line x1="534.977" y1="475.263" x2="430.590" y2="846.058"/>
<line x1="534.977" y1="475.263" x2="197.173" y2="475.263"/>
<line x1="534.977" y1="475.263" x2="534.977" y2="475.263"/>
<line x1="534.977" y1="475.263" x2="856.248" y2="383.148"/>
<line x1="430.590" y1="846.058" x2="92.786" y2="846.058"/>
<line x1="430.590" y1="846.058" x2="430.590" y2="846.058"/>
<line x1="430.590" y1="846.058" x2="751.861" y2="753.942"/>
<line x1="470.463" y1="246.100" x2="366.075" y2="616.894"/>
<line x1="470.463" y1="246.100" x2="197.173" y2="475.263"/>
<line x1="470.463" y1="246.100" x2="470.463" y2="246.100"/>
<line x1="470.463" y1="246.100" x2="791.733" y2="153.985"/>
<line x1="366.075" y1="616.894" x2="92.786" y2="846.058"/>
<line x1="366.075" y1="616.894" x2="366.075" y2="616.894"/>
<line x1="366.075" y1="616.894" x2="687.346" y2="524.779"/>
<line x1="197.173" y1="475.263" x2="92.786" y2="846.058"/>
<line x1="197.173" y1="475.263" x2="197.173" y2="475.263"/>
<line x1="197.173" y1="475.263" x2="518.444" y2="383.148"/>
<line x1="92.786" y1="846.058" x2="92.786" y2="846.058"/>
<line x1="92.786" y1="846.058" x2="414.057" y2="753.942"/>
<line x1="1507.214" y1="753.942" x2="1402.827" y2="1124.737"/>
<line x1="1507.214" y1="753.942" x2="1233.925" y2="983.106"/>
<line x1="1507.214" y1="753.942" x2="1169.410" y2="753.942"/>
<line x1="1507.214" y1="753.942" x2="1233.925" y2="524.779"/>
<line x1="1507.214" y1="753.942" x2="1402.827" y2="383.148"/>
<line x1="1507.214" y1="753.942" x2="1507.214" y2="753.942"/>
<line x1="1402.827" y1="1124.737" x2="1129.537" y2="1353.900"/>
<line x1="1402.827" y1="1124.737" x2="1065.023" y2="1124.737"/>
<line x1="1402.827" y1="1124.737" x2="1129.537" y2="895.573"/>
<line x1="1402.827" y1="1124.737" x2="1298.439" y2="753.942"/>
<line x1="1402.827" y1="1124.737" x2="1402.827" y2="1124.737"/>
<line x1="1233.925" y1="983.106" x2="1129.537" y2="1353.900"/>
<line x1="1233.925" y1="983.106" x2="896.121" y2="983.106"/>
<line x1="1233.925" y1="983.106" x2="960.635" y2="753.942"/>
<line x1="1233.925" y1="983.106" x2="1129.537" y2="612.311"/>
<line x1="1233.925" y1="983.106" x2="1233.925" y2="983.106"/>
<line x1="1129.537" y1="1353.900" x2="791.733" y2="1353.900"/>
<line x1="1129.537" y1="1353.900" x2="856.248" y2="1124.737"/>
<line x1="1129.537" y1="1353.900" x2="1025.150" y2="983.106"/>
<line x1="1129.537" y1="1353.900" x2="1129.537" y2="1353.900"/>
<line x1="1169.410" y1="753.942" x2="1065.023" y2="1124.737"/>
<line x1="1169.410" y1="753.942" x2="896.121" y2="983.106"/>
<line x1="1169.410" y1="753.942" x2="896.121" y2="524.779"/>
<line x1="1169.410" y1="753.942" x2="1065.023" y2="383.148"/>
<line x1="1169.410" y1="753.942" x2="1169.410" y2="753.942"/>
<line x1="1065.023" y1="1124.737" x2="791.733" y2="1353.900"/>
<line x1="1065.023" y1="1124.737" x2="791.733" y2="895.573"/>
<line x1="1065.023" y1="1124.737" x2="960.635" y2="753.942"/>
<line x1="1065.023" y1="1124.737" x2="1065.023" y2="1124.737"/>
<line x1="896.121" y1="983.106" x2="791.733" y2="1353.900"/>
<line x1="896.121" y1="983.106" x2="622.831" y2="753.942"/>
<line x1="896.121" y1="983.106" x2="791.733" y2="612.311"/>
<line x1="896.121" y1="983.106" x2="896.121" y2="983.106"/>
<line x1="791.733" y1="1353.900" x2="518.444" y2="1124.737"/>
<line x1="791.733" y1="1353.900" x2="687.346" y2="983.106"/>
<line x1="791.733" y1="1353.900" x2="791.733" y2="1353.900"/>
<line x1="1233.925" y1="524.779" x2="1129.537" y2="895.573"/>
<line x1="1233.925" y1="524.779" x2="960.635" y2="753.942"/>
<line x1="1233.925" y1="524.779" x2="896.121" y2="524.779"/>
<line x1="1233.925" y1="524.779" x2="1129.537" y2="153.985"/>
<line x1="1233.925" y1="524.779" x2="1233.925" y2="524.779"/>
<line x1="1129.537" y1="895.573" x2="856.248" y2="1124.737"/>
<line x1="1129.537" y1="895.573" x2="791.733" y2="895.573"/>
<line x1="1129.537" y1="895.573" x2="1025.150" y2="524.779"/>
<line x1="1129.537" y1="895.573" x2="1129.537" y2="895.573"/>
<line x1="960.635" y1="753.942" x2="856.248" y2="1124.737"/>
<line x1="960.635" y1="753.942" x2="622.831" y2="753.942"/>
<line x1="960.635" y1="753.942" x2="856.248" y2="383.148"/>
<line x1="960.635" y1="753.942" x2="960.635" y2="753.942"/>
<line x1="856.248" y1="1124.737" x2="518.444" y2="1124.737"/>
<line x1="856.248" y1="1124.737" x2="751.861" y2="753.942"/>
<line x1="856.248" y1="1124.737" x2="856.248" y2="1124.737"/>
<line x1="896.121" y1="524.779" x2="791.733" y2="895.573"/>
<line x1="896.121" y1="524.779" x2="622.831" y2="753.942"/>
<line x1="896.121" y1="524.779" x2="791.733" y2="153.985"/>
<line x1="896.121" y1="524.779" x2="896.121" y2="524.779"/>
<line x1="791.733" y1="895.573" x2="518.444" y2="1124.737"/>
<line x1="791.733" y1="895.573" x2="687.346" y2="524.779"/>
<line x1="791.733" y1="895.573" x2="791.733" y2="895.573"/>
<line x1="622.831" y1="753.942" x2="518.444" y2="1124.737"/>
<line x1="622.831" y1="753.942" x2="518.444" y2="383.148"/>
<line x1="622.831" y1="753.942" x2="622.831" y2="753.942"/>
<line x1="518.444" y1="1124.737" x2="414.057" y2="753.942"/>
<line x1="518.444" y1="1124.737" x2="518.444" y2="1124.737"/>
<line x1="1402.827" y1="383.148" x2="1298.439" y2="753.942"/>
<line x1="1402.827" y1="383.148" x2="1129.537" y2="612.311"/>
<line x1="1402.827" y1="383.148" x2="1065.023" y2="383.148"/>
<line x1="1402.827" y1="383.148" x2="1129.537" y2="153.985"/>
<line x1="1402.827" y1="383.148" x2="1402.827" y2="383.148"/>
<line x1="1298.439" y1="753.942" x2="1025.150" y2="983.106"/>
<line x1="1298.439" y1="753.942" x2="960.635" y2="753.942"/>
<line x1="1298.439" y1="753.942" x2="1025.150" y2="524.779"/>
<line x1="1298.439" y1="753.942" x2="1298.439" y2="753.942"/>
<line x1="1129.537" y1="612.311" x2="1025.150" y2="983.106"/>
<line x1="1129.537" y1="612.311" x2="791.733" y2="612.311"/>
<line x1="1129.537" y1="612.311" x2="856.248" y2="383.148"/>
<line x1="1129.537" y1="612.311" x2="1129.537" y2="612.311"/>
<line x1="1025.150" y1="983.106" x2="687.346" y2="983.106"/>
<line x1="1025.150" y1="983.106" x2="751.861" y2="753.942"/>
<line x1="1025.150" y1="983.106" x2="1025.150" y2="983.106"/>
<line x1="1065.023" y1="383.148" x2="960.635" y2="753.942"/>
<line x1="1065.023" y1="383.148" x2="791.733" y2="612.311"/>
<line x1="1065.023" y1="383.148" x2="791.733" y2="153.985"/>
<line x1="1065.023" y1="383.148" x2="1065.023" y2="383.148"/>
<line x1="960.635" y1="753.942" x2="687.346" y2="983.106"/>
<line x1="960.635" y1="753.942" x2="687.346" y2="524.779"/>
<line x1="791.733" y1="612.311" x2="687.346" y2="983.106"/>
<line x1="791.733" y1="612.311" x2="518.444" y2="383.148"/>
<line x1="791.733" y1="612.311" x2="791.733" y2="612.311"/>
<line x1="687.346" y1="983.106" x2="414.057" y2="753.942"/>
<line x1="687.346" y1="983.106" x2="687.346" y2="983.106"/>
<line x1="1129.537" y1="153.985" x2="1025.150" y2="524.779"/>
<line x1="1129.537" y1="153.985" x2="856.248" y2="383.148"/>
<line x1="1129.537" y1="153.985" x2="791.733" y2="153.985"/>
<line x1="1129.537" y1="153.985" x2="1129.537" y2="153.985"/>
<line x1="1025.150" y1="524.779" x2="751.861" y2="753.942"/>
<line x1="1025.150" y1="524.779" x2="687.346" y2="524.779"/>
<line x1="1025.150" y1="524.779" x2="1025.150" y2="524.779"/>
<line x1="856.248" y1="383.148" x2="751.861" y2="753.942"/>
<line x1="856.248" y1="383.148" x2="518.444" y2="383.148"/>
<line x1="856.248" y1="383.148" x2="856.248" y2="383.148"/>
<line x1="751.861" y1="753.942" x2="414.057" y2="753.942"/>
<line x1="751.861" y1="753.942" x2="751.861" y2="753.942"/>
<line x1="791.733" y1="153.985" x2="687.346" y2="524.779"/>
<line x1="791.733" y1="153.985" x2="518.444" y2="383.148"/>
<line x1="791.733" y1="153.985" x2="791.733" y2="153.985"/>
<line x1="687.346" y1="524.779" x2="414.057" y2="753.942"/>
<line x1="687.346" y1="524.779" x2="687.346" y2="524.779"/>
<line x1="518.444" y1="383.148" x2="414.057" y2="753.942"/>
<line x1="518.444" y1="383.148" x2="518.444" y2="383.148"/>
<line x1="414.057" y1="753.942" x2="414.057" y2="753.942"/>
</g>
<g style="stroke:#000000;stroke-width:3.0;fill:#ff0000">
<circle cx="1185.943" cy="846.058" r="28.5"/>
<circle cx="1081.556" cy="1216.852" r="28.5"/>
<circle cx="912.654" cy="1075.221" r="28.5"/>
<circle cx="808.267" cy="1446.015" r="28.5"/>
<circle cx="848.139" cy="846.058" r="28.5"/>
<circle cx="743.752" cy="1216.852" r="28.5"/>
<circle cx="574.850" cy="1075.221" r="28.5"/>
<circle cx="470.463" cy="1446.015" r="28.5"/>
<circle cx="912.654" cy="616.894" r="28.5"/>
<circle cx="808.267" cy="987.689" r="28.5"/>
<circle cx="534.977" cy="1216.852" r="28.5"/>
<circle cx="574.850" cy="616.894" r="28.5"/>
<circle cx="470.463" cy="987.689" r="28.5"/>
<circle cx="301.561" cy="846.058" r="28.5"/>
<circle cx="197.173" cy="1216.852" r="28.5"/>
<circle cx="1081.556" cy="475.263" r="28.5"/>
<circle cx="977.169" cy="846.058" r="28.5"/>
<circle cx="808.267" cy="704.427" r="28.5"/>
<circle cx="703.879" cy="1075.221" r="28.5"/>
<circle cx="743.752" cy="475.263" r="28.5"/>
<circle cx="470.463" cy="704.427" r="28.5"/>
<circle cx="366.075" cy="1075.221" r="28.5"/>
<circle cx="808.267" cy="246.100" r="28.5"/>
<circle cx="703.879" cy="616.894" r="28.5"/>
<circle cx="534.977" cy="475.263" r="28.5"/>
<circle cx="430.590" cy="846.058" r="28.5"/>
<circle cx="470.463" cy="246.100" r="28.5"/>
<circle cx="366.075" cy="616.894" r="28.5"/>
<circle cx="197.173" cy="475.263" r="28.5"/>
<circle cx="92.786" cy="846.058" r="28.5"/>
<circle cx="1507.214" cy="753.942" r="28.5"/>
<circle cx="1402.827" cy="1124.737" r="28.5"/>
<circle cx="1233.925" cy="983.106" r="28.5"/>
<circle cx="1129.537" cy="1353.900" r="28.5"/>
<circle cx="1169.410" cy="753.942" r="28.5"/>
<circle cx="1065.023" cy="1124.737" r="28.5"/>
<circle cx="896.121" cy="983.106" r="28.5"/>
<circle cx="791.733" cy="1353.900" r="28.5"/>
<circle cx="1233.925" cy="524.779" r="28.5"/>
<circle cx="1129.537" cy="895.573" r="28.5"/>
<circle cx="856.248" cy="1124.737" r="28.5"/>
<circle cx="896.121" cy="524.779" r="28.5"/>
<circle cx="791.733" cy="895.573" r="28.5"/>
<circle cx="622.831" cy="753.942" r="28.5"/>
<circle cx="518.444" cy="1124.737" r="28.5"/>
<circle cx="1402.827" cy="383.148" r="28.5"/>
<circle cx="1298.439" cy="753.942" r="28.5"/>
<circle cx="1129.537" cy="612.311" r="28.5"/>
<circle cx="1025.150" cy="983.106" r="28.5"/>
<circle cx="1065.023" cy="383.148" r="28.5"/>
<circle cx="791.733" cy="612.311" r="28.5"/>
<circle cx="687.346" cy="983.106" r="28.5"/>
<circle cx="1129.537" cy="153.985" r="28.5"/>
<circle cx="1025.150" cy="524.779" r="28.5"/>
<circle cx="856.248" cy="383.148" r="28.5"/>
<circle cx="751.861" cy="753.942" r="28.5"/>
<circle cx="791.733" cy="153.985" r="28.5"/>
<circle cx="687.346" cy="524.779" r="28.5"/>
<circle cx="518.444" cy="383.148" r="28.5"/>
<circle cx="414.057" cy="753.942" r="28.5"/>
</g>
<g style="stroke:#000000;stroke-width:3.0;fill:#ff7f00">
<circle cx="639.365" cy="846.058" r="28.5"/>
<circle cx="960.635" cy="753.942" r="28.5"/>
</g>
</svg>
